<svg width="60" height="60" viewBox="0 0 55 60" fill="none" xmlns="http://www.w3.org/2000/svg">
<g clip-path="url(#clip0)">
<path d="M46.3387 14.0292H8.13061C7.65964 14.0292 7.27772 14.4498 7.27772 14.9687V41.023C7.27772 41.5418 7.65953 41.9625 8.13061 41.9625H46.3387C46.8096 41.9625 47.1916 41.5419 47.1916 41.023V14.9687C47.1916 14.4498 46.8096 14.0292 46.3387 14.0292ZM19.104 40.0835H12.6223V37.7368C12.6223 37.7099 12.6378 37.686 12.6612 37.6774L16.8754 36.13C16.948 36.1033 17.0175 36.0706 17.0851 36.0347L19.104 37.5175V40.0835V40.0835ZM17.1456 22.588C17.5051 22.1577 17.9952 21.9206 18.526 21.9206H21.3879C21.9188 21.9206 22.4092 22.1576 22.7687 22.588C23.1282 23.0185 23.3018 23.5764 23.2576 24.159L22.869 29.2977C22.8176 29.9762 22.4424 30.587 21.8895 30.8916L20.7546 31.5167C20.2551 31.7916 19.6589 31.7916 19.1597 31.5167L18.0248 30.8916C17.4719 30.587 17.0965 29.9763 17.0453 29.2977L16.6565 24.159C16.6124 23.5764 16.7861 23.0183 17.1456 22.588ZM18.069 34.4992C18.0758 34.4297 18.0806 34.3594 18.0806 34.2883V33.0232L18.3966 33.1972C18.8851 33.4663 19.421 33.6008 19.9568 33.6008C20.4927 33.6008 21.0285 33.4663 21.5171 33.1972L21.833 33.0232V34.2883C21.833 34.3595 21.8378 34.4297 21.8446 34.4992L19.9567 35.8856L18.069 34.4992ZM27.2914 40.0835H20.8097V37.5175L22.8286 36.0349C22.8961 36.0709 22.9657 36.1036 23.0383 36.1302L27.2525 37.6777C27.2758 37.6862 27.2914 37.7101 27.2914 37.7371V40.0835ZM45.4858 40.0835H28.9971V37.7368C28.9971 36.8999 28.5129 36.1597 27.7919 35.8949L23.5776 34.3474C23.5543 34.3389 23.5387 34.315 23.5387 34.288V32.0042C23.5387 31.9614 23.5352 31.9198 23.5302 31.8785C24.1196 31.24 24.4985 30.3796 24.5685 29.4537L24.9571 24.3151C25.04 23.2186 24.6998 22.1255 24.0234 21.3157C23.347 20.5061 22.3864 20.0417 21.3876 20.0417H18.5259C17.5271 20.0417 16.5664 20.506 15.89 21.3157C15.2136 22.1254 14.8734 23.2186 14.9563 24.3151L15.3449 29.4538C15.4149 30.3795 15.7939 31.24 16.3832 31.8785C16.3782 31.9198 16.3747 31.9615 16.3747 32.0042V34.2881C16.3747 34.3151 16.3592 34.339 16.3358 34.3476L12.1215 35.895C11.4008 36.1597 10.9165 36.8999 10.9165 37.7368V40.0835H8.9835V15.9081H45.4859V40.0835H45.4858Z" fill="black"/>
<path d="M52.7067 44.092H50.8304V13.9667C50.8304 11.791 49.2234 10.021 47.2484 10.021H7.2209C5.24575 10.021 3.63891 11.7911 3.63891 13.9667V44.092H1.76259C0.790656 44.092 0 44.9629 0 46.0334V48.0376C0 49.1082 0.790656 49.9791 1.76259 49.9791H52.7067C53.6786 49.9791 54.4693 49.1082 54.4693 48.0376V46.0334C54.4693 44.9629 53.6786 44.092 52.7067 44.092ZM5.34458 13.9667C5.34458 12.827 6.18631 11.8999 7.2209 11.8999H47.2484C48.283 11.8999 49.1247 12.827 49.1247 13.9667V44.092H5.34458V13.9667ZM52.7636 48.0377C52.7636 48.0722 52.7382 48.1002 52.7068 48.1002H1.76259C1.73121 48.1002 1.70578 48.0722 1.70578 48.0377V46.0335C1.70578 45.999 1.73121 45.971 1.76259 45.971H22.7458C22.7445 45.9917 22.7429 46.0124 22.7429 46.0335C22.7429 46.5523 23.1248 46.973 23.5958 46.973H30.8735C31.3445 46.973 31.7264 46.5524 31.7264 46.0335C31.7264 46.0123 31.7248 45.9917 31.7236 45.971H52.7068C52.7382 45.971 52.7636 45.999 52.7636 46.0335V48.0377V48.0377Z" fill="black"/>
<path d="M42.6998 18.0376H36.3714C36.0497 18.0376 35.7554 18.2371 35.6103 18.5533L32.2398 25.8989L30.7266 22.5654C30.5822 22.2471 30.2869 22.046 29.9638 22.046H28.1444C27.6735 22.046 27.2915 22.4666 27.2915 22.9855C27.2915 23.5044 27.6733 23.925 28.1444 23.925H29.4368L31.0204 27.414C31.1648 27.7323 31.4601 27.9334 31.7832 27.9334H32.6929C33.0146 27.9334 33.3089 27.7339 33.4541 27.4176L36.8958 19.9166H42.6997C43.1707 19.9166 43.5526 19.496 43.5526 18.9771C43.5526 18.4582 43.1708 18.0376 42.6998 18.0376Z" fill="black"/>
<path d="M41.0628 24.4885L42.4561 22.5702C42.7503 22.1651 42.6906 21.5739 42.3229 21.2497C41.9551 20.9256 41.4183 20.9913 41.1241 21.3964L39.9707 22.9848L38.8172 21.3967C38.5229 20.9914 37.986 20.9257 37.6184 21.25C37.2506 21.574 37.191 22.1652 37.4852 22.5704L38.8784 24.4888L37.4852 26.4071C37.1911 26.8121 37.2508 27.4033 37.6185 27.7274C37.7758 27.8659 37.9639 27.9333 38.1507 27.9333C38.4009 27.9333 38.6488 27.8126 38.8172 27.5807L39.9707 25.9925L41.1242 27.5807C41.2926 27.8127 41.5405 27.9333 41.7907 27.9333C41.9775 27.9333 42.1657 27.8659 42.3229 27.7274C42.6906 27.4033 42.7503 26.8121 42.4561 26.4069L41.0628 24.4885Z" fill="black"/>
<path d="M31.7832 31.0648H30.8735C30.4025 31.0648 30.0206 31.4853 30.0206 32.0043C30.0206 32.5232 30.4024 32.9438 30.8735 32.9438H31.7832C32.2542 32.9438 32.6361 32.5232 32.6361 32.0043C32.6361 31.4853 32.2542 31.0648 31.7832 31.0648Z" fill="black"/>
<path d="M42.6998 31.0648H35.422C34.951 31.0648 34.5691 31.4853 34.5691 32.0043C34.5691 32.5232 34.9509 32.9438 35.422 32.9438H42.6997C43.1707 32.9438 43.5526 32.5232 43.5526 32.0043C43.5526 31.4853 43.1708 31.0648 42.6998 31.0648Z" fill="black"/>
<path d="M40.8803 35.0731H35.422C34.951 35.0731 34.5691 35.4936 34.5691 36.0125C34.5691 36.5315 34.9509 36.952 35.422 36.952H40.8803C41.3513 36.952 41.7332 36.5315 41.7332 36.0125C41.7332 35.4936 41.3514 35.0731 40.8803 35.0731Z" fill="black"/>
<path d="M31.7832 35.0731H30.8735C30.4025 35.0731 30.0206 35.4936 30.0206 36.0125C30.0206 36.5315 30.4024 36.952 30.8735 36.952H31.7832C32.2542 36.952 32.6361 36.5315 32.6361 36.0125C32.6361 35.4936 32.2542 35.0731 31.7832 35.0731Z" fill="black"/>
</g>
<defs>
<clipPath id="clip0">
<rect width="54.4693" height="60" fill="white"/>
</clipPath>
</defs>
</svg>
