<svg width="60" height="60" viewBox="0 0 60 27" fill="none" xmlns="http://www.w3.org/2000/svg">
<path d="M12.1527 12.9022C11.6663 12.9022 11.272 13.1985 11.272 13.564C11.272 13.9776 10.8243 14.3141 10.274 14.3141C9.72365 14.3141 9.27593 13.9776 9.27593 13.564C9.27593 13.1504 9.72365 12.8139 10.274 12.8139C10.7603 12.8139 11.1546 12.5176 11.1546 12.1521C11.1546 11.7866 10.7603 11.4902 10.274 11.4902C8.75248 11.4902 7.51465 12.4205 7.51465 13.564C7.51465 14.7075 8.75248 15.6378 10.274 15.6378C11.7955 15.6378 13.0333 14.7075 13.0333 13.564C13.0333 13.1985 12.639 12.9022 12.1527 12.9022Z" fill="black"/>
<path d="M49.726 14.3141C49.1757 14.3141 48.728 13.9776 48.728 13.564C48.728 13.1504 49.1757 12.8139 49.726 12.8139C50.2124 12.8139 50.6067 12.5176 50.6067 12.1521C50.6067 11.7866 50.2124 11.4902 49.726 11.4902C48.2045 11.4902 46.9667 12.4205 46.9667 13.564C46.9667 14.7075 48.2045 15.6378 49.726 15.6378C51.2475 15.6378 52.4854 14.7075 52.4854 13.564C52.4854 13.1985 52.0911 12.9022 51.6047 12.9022C51.1184 12.9022 50.7241 13.1985 50.7241 13.564C50.7241 13.9776 50.2764 14.3141 49.726 14.3141Z" fill="black"/>
<path d="M30 14.226C32.0685 14.226 33.816 15.0545 33.816 16.0351C33.816 17.0157 32.0685 17.8442 30 17.8442C27.9315 17.8442 26.184 17.0157 26.184 16.0351C26.184 15.6696 25.7897 15.3733 25.3034 15.3733C24.817 15.3733 24.4227 15.6696 24.4227 16.0351C24.4227 17.6232 26.4247 18.8999 29.1194 19.1306V19.9181C29.1194 20.2836 29.5137 20.58 30 20.58C30.4863 20.58 30.8806 20.2836 30.8806 19.9181V19.1306C33.5753 18.8999 35.5773 17.6232 35.5773 16.0351C35.5773 14.2783 33.1275 12.9023 30 12.9023C27.9315 12.9023 26.184 12.0738 26.184 11.0932C26.184 10.1125 27.9315 9.28406 30 9.28406C32.0685 9.28406 33.816 10.1125 33.816 11.0932C33.816 11.4587 34.2103 11.755 34.6966 11.755C35.183 11.755 35.5773 11.4587 35.5773 11.0932C35.5773 9.50513 33.5753 8.22843 30.8806 7.99774V7.21021C30.8806 6.84468 30.4863 6.54834 30 6.54834C29.5137 6.54834 29.1194 6.84468 29.1194 7.21021V7.99774C26.4247 8.22843 24.4227 9.50513 24.4227 11.0932C24.4227 12.8499 26.8725 14.226 30 14.226Z" fill="black"/>
<path d="M58.18 0.900269H1.81996C0.816399 0.900269 0 1.51387 0 2.26813V24.8599C0 25.6142 0.816399 26.2278 1.81996 26.2278H58.18C59.1836 26.2278 60 25.6142 60 24.8599V2.26813C60 1.51387 59.1836 0.900269 58.18 0.900269ZM58.2387 24.8599C58.2387 24.8843 58.2124 24.904 58.18 24.904H1.81996C1.78755 24.904 1.76125 24.8843 1.76125 24.8599V2.26813C1.76125 2.24377 1.78755 2.22401 1.81996 2.22401H58.18C58.2124 2.22401 58.2387 2.24377 58.2387 2.26813V24.8599Z" fill="black"/>
<path d="M55.362 7.96025C52.7399 7.96025 50.6067 6.35697 50.6067 4.38622C50.6067 4.0207 50.2124 3.72437 49.726 3.72437H10.274C9.78762 3.72437 9.39334 4.0207 9.39334 4.38622C9.39334 6.35697 7.26011 7.96025 4.63795 7.96025C4.15161 7.96025 3.75732 8.25659 3.75732 8.62211V18.5059C3.75732 18.8714 4.15161 19.1677 4.63795 19.1677C7.26011 19.1677 9.39334 20.771 9.39334 22.7417C9.39334 23.1073 9.78762 23.4036 10.274 23.4036H22.9872C22.9881 23.4036 22.9889 23.4037 22.9899 23.4037C22.9908 23.4037 22.9917 23.4036 22.9926 23.4036H37.0074C37.0084 23.4036 37.0092 23.4037 37.0101 23.4037C37.0111 23.4037 37.0119 23.4036 37.0128 23.4036H49.726C50.2124 23.4036 50.6067 23.1073 50.6067 22.7417C50.6067 20.771 52.7399 19.1677 55.362 19.1677C55.8484 19.1677 56.2427 18.8714 56.2427 18.5059V8.62211C56.2427 8.25659 55.8484 7.96025 55.362 7.96025V7.96025ZM43.2094 13.564C43.2094 17.0432 40.7459 20.2895 36.7664 22.0799H23.2336C19.2541 20.2895 16.7906 17.0432 16.7906 13.564C16.7906 10.0847 19.2541 6.83845 23.2336 5.04808H36.7663C40.7459 6.83845 43.2094 10.0847 43.2094 13.564ZM5.51858 17.8886V9.2394C8.40915 8.94483 10.7034 7.22056 11.0953 5.04808H20.2374C16.9737 7.16541 15.0293 10.2725 15.0293 13.564C15.0293 16.8554 16.9737 19.9626 20.2374 22.0799H11.0953C10.7034 19.9074 8.40915 18.1831 5.51858 17.8886V17.8886ZM54.4814 17.8886C51.5909 18.1831 49.2966 19.9074 48.9047 22.0799H39.7626C43.0263 19.9626 44.9707 16.8554 44.9707 13.564C44.9707 10.2725 43.0263 7.16541 39.7626 5.04808H48.9047C49.2966 7.22056 51.5909 8.94483 54.4814 9.2394V17.8886Z" fill="black"/>
</svg>
