<svg width="60" height="60" viewBox="0 0 50 60" fill="none" xmlns="http://www.w3.org/2000/svg">
<path d="M46.5481 14.7901V7.84014L47.6083 7.63907C48.4317 7.48278 49.0069 6.79097 49.0069 5.95647C49.0069 5.12182 48.4318 4.42986 47.6083 4.27373L25.6392 0.107229C24.8856 -0.0357429 24.1213 -0.0357429 23.3677 0.107229L1.3986 4.27358C0.575108 4.42972 0 5.12182 0 5.95632C0 6.79097 0.575252 7.48293 1.3986 7.63892L10.8537 9.43201L10.0188 14.4518C9.98152 14.6752 9.97721 14.8963 10.0009 15.1101C9.73846 15.4241 9.20963 16.1574 8.80213 17.3747C8.16147 19.2887 8.07135 21.5554 8.53161 24.1167C7.81189 24.7745 7.35983 25.7182 7.35983 26.7652V29.2133C7.35983 30.8264 8.43199 32.1944 9.90419 32.6486L10.9853 44.4892L5.42119 46.7975C3.61164 47.5482 2.4423 49.2946 2.4423 51.2465V56.1428C2.4423 58.1255 4.06241 59.7385 6.0538 59.7385H42.9366C44.928 59.7385 46.5481 58.1255 46.5481 56.1428V51.2465C46.5481 49.2947 45.3788 47.5484 43.5691 46.7977L38.005 44.4894L39.0861 32.6488C40.5581 32.1945 41.6304 30.8265 41.6304 29.2135V26.7653C41.6304 25.7179 41.1779 24.7736 40.4575 24.1159C41.4469 18.5869 39.5643 15.8078 38.9893 15.1115C39.0133 14.897 39.0089 14.6757 38.9716 14.4518L38.1372 9.43501L44.2431 8.27707V14.7901C42.8154 15.2702 41.7842 16.6155 41.7842 18.1969V23.0932C41.7842 23.7269 42.3003 24.2407 42.9367 24.2407H47.8544C48.4909 24.2407 49.0069 23.7269 49.0069 23.0932V18.1969C49.0069 16.6155 47.9757 15.2702 46.5481 14.7901ZM11.4593 17.0292C11.5634 17.0716 11.6702 17.1095 11.7823 17.1379L22.463 19.8397C21.5292 20.0019 20.5304 20.145 19.4683 20.2674C15.5811 20.7153 12.2341 20.7215 12.2007 20.7215C11.8769 20.7215 11.568 20.8571 11.3496 21.0953C11.1314 21.3334 11.0235 21.6519 11.053 21.973L11.1622 23.1697H10.9713C10.8844 23.1697 10.7984 23.1739 10.713 23.18C10.2081 19.774 10.9762 17.8522 11.4593 17.0292ZM30.5385 19.6441C31.4629 20.4151 33.2342 21.7223 35.5615 22.6436L34.6478 32.6509C34.5349 33.8874 33.8167 34.9856 32.7267 35.5885L26.3239 39.13C25.179 39.7633 23.812 39.7633 22.667 39.13L16.2642 35.5885C15.1742 34.9856 14.4557 33.8873 14.3431 32.6509L13.4612 22.9943C14.8171 22.9549 17.1263 22.8469 19.7099 22.55C24.6077 21.9875 28.2427 21.0113 30.5385 19.6441ZM25.6477 17.6943V11.8038L35.8717 9.86493L36.6971 14.8269C36.7037 14.8665 36.6793 14.9037 36.6402 14.9136L25.6477 17.6943ZM33.1734 40.9334C32.6995 40.8683 32.2221 40.9504 31.8 41.1565C31.797 41.1199 31.7949 41.0834 31.7949 41.0463V38.7291L33.846 37.5945C35.1537 36.8712 36.1287 35.7054 36.6175 34.335L35.7898 43.4007L34.8299 41.9671C34.452 41.403 33.8483 41.0261 33.1734 40.9334ZM34.2059 45.1729L30.3101 51.9608L26.3019 48.7684L32.7977 43.2247C32.8049 43.2185 32.8234 43.2021 32.8582 43.2069C32.8924 43.2116 32.9063 43.2325 32.9117 43.2403L34.2059 45.1729ZM17.1955 41.0463C17.1955 41.0832 17.1934 41.1199 17.1904 41.1564C16.7684 40.9503 16.2913 40.868 15.8171 40.9333C15.1423 41.0259 14.5385 41.4027 14.1606 41.9671L13.2007 43.4007L12.3731 34.335C12.8617 35.7054 13.8365 36.8714 15.1444 37.5948L17.1956 38.7294V41.0463H17.1955ZM22.6884 48.7682L18.6802 51.9607L14.7843 45.1727L16.0784 43.2401C16.0836 43.2323 16.0977 43.2115 16.1319 43.2068C16.167 43.2021 16.1852 43.2182 16.1924 43.2244L22.6884 48.7682ZM23.3427 17.6943L12.3501 14.9136C12.311 14.9039 12.2866 14.8665 12.2932 14.827L13.119 9.86192L23.3425 11.8007V17.6943H23.3427ZM10.9822 30.5142H10.9715C10.2512 30.5142 9.66515 29.9307 9.66515 29.2136V26.7655C9.66515 26.0483 10.2512 25.4649 10.9715 25.4649H11.3718L11.8328 30.5141H10.9867C10.9854 30.5142 10.9838 30.5142 10.9822 30.5142ZM9.81881 57.4437H6.05365C5.33351 57.4437 4.74748 56.8602 4.74748 56.1431V51.2468C4.74748 50.9304 4.80656 50.6244 4.91566 50.3409L8.86724 53.4886C9.4721 53.9703 9.81881 54.6887 9.81881 55.46V57.4437V57.4437ZM23.3425 57.4438H12.124V55.4601C12.1241 53.9877 11.4618 52.616 10.3072 51.6963L6.6427 48.7775L12.7452 46.2458L17.3472 54.2644C17.5143 54.5556 17.801 54.7594 18.1319 54.8222C18.2037 54.8358 18.2761 54.8426 18.3478 54.8426C18.6074 54.8426 18.8618 54.7551 19.0678 54.591L23.3424 51.1863V57.4438H23.3425ZM19.1016 42.6844C19.3608 42.1811 19.5006 41.6215 19.5006 41.0463V40.0044L21.5472 41.1363C22.4703 41.647 23.4827 41.9021 24.4952 41.9021C25.5076 41.9021 26.5204 41.6468 27.4432 41.1363L29.4898 40.0044V41.0463C29.4898 41.6216 29.6296 42.1812 29.8887 42.6845L24.4953 47.2873L19.1016 42.6844ZM44.0747 50.3409C44.1838 50.6244 44.2429 50.9304 44.2429 51.2468V56.1431C44.2429 56.8602 43.6569 57.4437 42.9366 57.4437H39.1714V55.46C39.1714 54.6889 39.5183 53.9703 40.123 53.4884L44.0747 50.3409ZM42.3475 48.7775L38.6832 51.6963C37.5286 52.6158 36.8664 53.9876 36.8664 55.4598V57.4435H25.6479V51.1861L29.9224 54.5908C30.1284 54.7548 30.3828 54.8424 30.6424 54.8424C30.7143 54.8424 30.7866 54.8357 30.8583 54.8221C31.1892 54.7593 31.476 54.5553 31.643 54.2642L36.245 46.2458L42.3475 48.7775ZM39.3251 26.7655V29.2136C39.3251 29.9307 38.7391 30.5142 38.0188 30.5142H38.0064C38.0057 30.5142 38.0048 30.5142 38.0041 30.5142H37.1573L37.6183 25.465H38.0186C38.7392 25.4649 39.3251 26.0483 39.3251 26.7655ZM38.2772 23.1799C38.1917 23.1739 38.1058 23.1697 38.0189 23.1697H37.828L37.9373 21.973C37.9857 21.4426 37.6613 20.9489 37.1539 20.7804C35.1733 20.1231 33.5597 19.0719 32.5618 18.3131L37.2079 17.1379C37.3201 17.1094 37.4271 17.0715 37.5311 17.0291C38.0143 17.8522 38.7823 19.774 38.2772 23.1799ZM25.2079 9.55079C24.7404 9.63938 24.2662 9.63938 23.7988 9.55079L4.84537 5.95632L23.7989 2.36186C24.2664 2.27327 24.7406 2.27313 25.208 2.36186L44.1614 5.95632L25.2079 9.55079ZM46.7018 21.9457H44.0893V18.1969C44.0893 17.4798 44.6753 16.8963 45.3956 16.8963C46.1159 16.8963 46.7019 17.4798 46.7019 18.1969V21.9457H46.7018Z" fill="black"/>
</svg>
